<svg xmlns="http://www.w3.org/2000/svg"><symbol viewBox="0 0 30.89 30.889" id="email"><title>email</title> <path d="M15.444,0.001c2.112-0.029,4.099,0.36,5.962,1.166c1.862,0.807,3.491,1.907,4.884,3.3
	c1.394,1.394,2.5,3.036,3.321,4.928c0.822,1.892,1.246,3.909,1.277,6.05c0.028,2.142-0.361,4.151-1.166,6.028
	c-0.808,1.877-1.914,3.513-3.322,4.906c-1.408,1.395-3.051,2.493-4.928,3.301c-1.877,0.807-3.887,1.209-6.028,1.209
	c-2.141,0-4.151-0.402-6.028-1.209c-1.877-0.808-3.513-1.906-4.906-3.301c-1.394-1.393-2.494-3.029-3.3-4.906
	C0.403,19.597,0,17.587,0,15.446c0-2.141,0.403-4.143,1.21-6.006s1.907-3.491,3.3-4.884c1.393-1.393,3.028-2.493,4.906-3.3
	C11.293,0.449,13.303,0.031,15.444,0.001z M6.512,8.45c-0.206,0-0.382,0.074-0.528,0.22C5.808,8.846,5.72,9.037,5.72,9.242V21.65
	c0,0.264,0.088,0.455,0.264,0.572c0.146,0.147,0.323,0.22,0.528,0.22h17.864c0.205,0,0.381-0.073,0.528-0.22
	c0.146-0.146,0.22-0.337,0.22-0.572V9.242c0-0.176-0.074-0.366-0.22-0.572c-0.147-0.146-0.323-0.22-0.528-0.22H6.512z M7.216,20.198
	V11.09l5.148,4.488L7.216,20.198z M15.4,16.37l-6.908-6.116h13.86L15.4,16.37z M8.668,20.946l4.84-4.4l1.408,1.32l0.968,0.044
	l1.496-1.364l4.796,4.4H8.668z M23.672,20.198l-5.148-4.62l5.148-4.488V20.198z"/> </symbol><symbol viewBox="0 0 30.887 30.932" id="facebook"><title>facebook</title> <path d="M15.444,30.932c-2.142,0-4.151-0.402-6.028-1.209c-1.878-0.808-3.514-1.906-4.906-3.301
	c-1.394-1.393-2.493-3.029-3.3-4.906C0.402,19.639,0,17.63,0,15.488c0-2.141,0.402-4.15,1.21-6.028
	c0.807-1.876,1.906-3.52,3.3-4.928C5.902,3.124,7.538,2.017,9.416,1.21C11.293,0.404,13.303,0,15.444,0
	c2.141,0,4.15,0.404,6.027,1.21c1.877,0.807,3.513,1.914,4.906,3.322c1.393,1.408,2.493,3.051,3.3,4.928
	c0.808,1.878,1.21,3.887,1.21,6.028c0,2.142-0.402,4.151-1.209,6.028c-0.808,1.877-1.908,3.513-3.301,4.906
	c-1.395,1.395-3.029,2.493-4.906,3.301C19.595,30.529,17.585,30.932,15.444,30.932z M11.439,16.016h2.288v6.952h2.86v-6.952h2.86
	v-2.86h-2.86v-1.452c0-0.234,0.059-0.44,0.176-0.616c0.117-0.176,0.249-0.264,0.396-0.264h2.288V8.008H17.16
	c-0.939,0-1.746,0.367-2.42,1.1c-0.676,0.734-1.013,1.614-1.013,2.64v1.408h-2.288V16.016z"/> </symbol><symbol viewBox="0 0 30.932 30.934" id="google"><title>google</title> <path d="M15.444,0.001c2.112-0.029,4.099,0.36,5.962,1.166c1.862,0.807,3.499,1.907,4.907,3.3
	c1.408,1.394,2.521,3.036,3.344,4.928s1.246,3.909,1.275,6.05c0,2.142-0.404,4.151-1.209,6.028c-0.809,1.877-1.914,3.52-3.322,4.927
	c-1.408,1.408-3.051,2.516-4.928,3.322c-1.878,0.808-3.888,1.211-6.028,1.211c-2.142,0-4.151-0.403-6.028-1.211
	c-1.877-0.807-3.513-1.914-4.905-3.322c-1.394-1.407-2.494-3.05-3.301-4.927C0.403,19.597,0,17.587,0,15.446
	c0-2.141,0.403-4.143,1.21-6.006c0.807-1.862,1.907-3.49,3.301-4.884c1.393-1.393,3.028-2.493,4.905-3.3
	C11.293,0.449,13.303,0.031,15.444,0.001z M13.597,15.578c0-0.264,0.116-0.491,0.352-0.682c0.234-0.19,0.484-0.41,0.748-0.66
	c0.264-0.249,0.513-0.55,0.748-0.902c0.234-0.352,0.352-0.821,0.352-1.408c0-0.704-0.065-1.276-0.197-1.716
	c-0.133-0.44-0.478-0.792-1.034-1.056c0-0.088,0.103-0.146,0.308-0.176c0.205-0.029,0.425-0.066,0.66-0.11
	c0.234-0.044,0.454-0.095,0.66-0.154C16.397,8.655,16.5,8.538,16.5,8.362h-4.268c-0.821,0.059-1.556,0.235-2.2,0.528
	c-0.558,0.235-1.056,0.609-1.496,1.122c-0.439,0.514-0.66,1.239-0.66,2.178s0.19,1.636,0.572,2.09
	c0.381,0.455,0.821,0.77,1.32,0.946c0.527,0.206,1.158,0.279,1.892,0.22v0.924c0,0.206,0.088,0.33,0.264,0.374
	c0.177,0.044,0.279,0.257,0.309,0.638c-0.06,0-0.367,0.007-0.924,0.022c-0.558,0.015-1.159,0.125-1.805,0.33
	c-0.646,0.206-1.231,0.528-1.76,0.968c-0.529,0.44-0.792,1.071-0.792,1.892c0,0.851,0.227,1.496,0.682,1.937
	c0.455,0.44,0.961,0.748,1.519,0.924c0.645,0.235,1.393,0.337,2.244,0.308c0.938,0,1.789-0.132,2.552-0.396
	c0.645-0.234,1.232-0.616,1.76-1.144c0.528-0.528,0.792-1.32,0.792-2.376c0-0.616-0.153-1.137-0.462-1.562
	c-0.308-0.425-0.638-0.799-0.99-1.122c-0.352-0.322-0.682-0.601-0.989-0.836C13.75,16.091,13.597,15.842,13.597,15.578z
	 M12.101,22.706c-0.91,0.059-1.688-0.117-2.332-0.528c-0.646-0.411-0.998-0.938-1.057-1.584c-0.059-0.674,0.213-1.261,0.814-1.76
	c0.601-0.498,1.342-0.777,2.222-0.836c0.909-0.058,1.687,0.118,2.332,0.528c0.646,0.411,0.997,0.953,1.057,1.628
	c0.058,0.646-0.214,1.217-0.814,1.716C13.721,22.369,12.98,22.647,12.101,22.706z M9.9,12.41c-0.235-0.763-0.235-1.452,0-2.068
	c0.234-0.616,0.616-0.997,1.144-1.144c0.558-0.146,1.085-0.015,1.584,0.396c0.499,0.411,0.865,0.998,1.101,1.76
	c0.205,0.763,0.19,1.452-0.044,2.068c-0.235,0.616-0.616,0.998-1.145,1.144c-0.527,0.147-1.049,0.008-1.562-0.418
	C10.465,13.723,10.105,13.143,9.9,12.41z M21.868,11.397V8.362h-0.88v3.036h-2.992v0.88h2.992v2.992h0.88v-2.992h2.991v-0.88
	L21.868,11.397L21.868,11.397z"/> </symbol><symbol viewBox="0 0 30.932 30.889" id="share"><title>share</title> <path d="M15.62,0c2.112,0.03,4.099,0.448,5.962,1.254c1.862,0.807,3.49,1.907,4.884,3.3
	c1.394,1.394,2.486,3.029,3.277,4.906c0.793,1.877,1.188,3.872,1.188,5.984c0,2.142-0.404,4.151-1.211,6.028
	c-0.807,1.877-1.906,3.512-3.299,4.906c-1.395,1.394-3.029,2.493-4.906,3.3s-3.887,1.211-6.028,1.211
	c-2.142,0-4.151-0.404-6.028-1.211s-3.52-1.906-4.928-3.3c-1.408-1.394-2.516-3.029-3.322-4.906C0.403,19.595,0,17.586,0,15.444
	c0-2.112,0.403-4.106,1.21-5.984c0.807-1.877,1.899-3.513,3.278-4.906c1.378-1.393,2.999-2.493,4.862-3.3
	C11.212,0.448,13.2,0.03,15.312,0H15.62z M10.296,12.452c-0.733,0-1.357,0.257-1.87,0.77c-0.514,0.514-0.77,1.137-0.77,1.87
	c0,0.733,0.256,1.357,0.77,1.87c0.513,0.513,1.136,0.77,1.87,0.77c0.645,0,1.217-0.205,1.716-0.616l5.324,2.684v0.132
	c0,0.734,0.257,1.357,0.77,1.87c0.513,0.514,1.137,0.771,1.87,0.771s1.356-0.256,1.87-0.771c0.513-0.513,0.77-1.136,0.77-1.87
	c0-0.733-0.257-1.356-0.77-1.87c-0.514-0.513-1.137-0.77-1.87-0.77c-0.323,0-0.631,0.059-0.924,0.176
	c-0.293,0.118-0.558,0.264-0.792,0.44l-5.324-2.64v-0.176V14.96l5.324-2.684c0.499,0.411,1.07,0.616,1.716,0.616
	c0.733,0,1.356-0.249,1.87-0.748c0.513-0.498,0.77-1.129,0.77-1.892c0-0.733-0.257-1.349-0.77-1.848
	c-0.514-0.499-1.137-0.748-1.87-0.748s-1.357,0.25-1.87,0.748c-0.513,0.499-0.77,1.115-0.77,1.848v0.176l-5.324,2.684
	C11.484,12.672,10.912,12.452,10.296,12.452z"/> </symbol><symbol viewBox="0 0 30.932 30.889" id="twitter"><title>twitter</title> <path d="M15.488,0c2.141,0,4.15,0.404,6.028,1.21c1.877,0.807,3.513,1.907,4.906,3.3
	c1.393,1.394,2.492,3.029,3.301,4.906c0.807,1.878,1.209,3.887,1.209,6.028c0,2.142-0.402,4.151-1.209,6.028
	c-0.809,1.877-1.908,3.512-3.301,4.906c-1.395,1.394-3.029,2.493-4.906,3.3c-1.878,0.807-3.888,1.211-6.028,1.211
	c-2.142,0-4.151-0.404-6.028-1.211s-3.52-1.906-4.928-3.3c-1.408-1.394-2.516-3.029-3.322-4.906C0.403,19.595,0,17.586,0,15.444
	c0-2.141,0.403-4.15,1.21-6.028C2.017,7.54,3.124,5.904,4.532,4.51C5.94,3.117,7.583,2.017,9.46,1.21
	C11.337,0.404,13.347,0,15.488,0z M23.849,11c-0.294,0.118-0.587,0.213-0.88,0.286c-0.294,0.074-0.602,0.14-0.925,0.198
	c0.323-0.205,0.602-0.455,0.837-0.748c0.234-0.293,0.425-0.616,0.571-0.968c-0.323,0.147-0.653,0.293-0.99,0.44
	s-0.696,0.25-1.077,0.308c-0.265-0.322-0.588-0.572-0.969-0.748c-0.381-0.176-0.807-0.264-1.275-0.264
	c-0.852,0-1.584,0.308-2.2,0.924c-0.616,0.616-0.924,1.364-0.924,2.244c0,0.176,0.028,0.411,0.088,0.704
	c-1.32-0.058-2.53-0.381-3.63-0.968c-1.101-0.586-2.046-1.364-2.838-2.332C9.372,10.575,9.24,11.104,9.24,11.66
	c0,1.174,0.454,2.039,1.364,2.596c-0.528,0-0.998-0.117-1.408-0.352v0.044c0,0.763,0.234,1.43,0.704,2.002
	c0.469,0.572,1.056,0.932,1.76,1.078c-0.117,0.029-0.242,0.051-0.374,0.066c-0.132,0.015-0.286,0.022-0.462,0.022
	c-0.117,0-0.293-0.029-0.528-0.088c0.177,0.616,0.528,1.129,1.057,1.54c0.528,0.411,1.144,0.631,1.848,0.66
	c-1.115,0.88-2.405,1.32-3.872,1.32H8.58c0.675,0.44,1.423,0.785,2.244,1.034c0.821,0.25,1.672,0.374,2.552,0.374
	c1.438,0,2.713-0.271,3.828-0.814c1.114-0.542,2.046-1.239,2.794-2.09c0.748-0.851,1.312-1.804,1.694-2.86
	c0.381-1.056,0.572-2.112,0.572-3.168v-0.396c0.322-0.235,0.616-0.491,0.88-0.77C23.408,11.579,23.643,11.294,23.849,11z"/> </symbol></svg>