<?xml version="1.0" encoding="utf-8"?>
<!DOCTYPE svg PUBLIC "-//W3C//DTD SVG 1.1//EN" "http://www.w3.org/Graphics/SVG/1.1/DTD/svg11.dtd">
<svg version="1.1" id="Layer_1" xmlns="http://www.w3.org/2000/svg" xmlns:xlink="http://www.w3.org/1999/xlink" x="0px" y="0px"
	 width="30.89px" height="30.889px" viewBox="0 0 30.89 30.889" enable-background="new 0 0 30.89 30.889" xml:space="preserve">
<path d="M15.444,0.001c2.112-0.029,4.099,0.36,5.962,1.166c1.862,0.807,3.491,1.907,4.884,3.3
	c1.394,1.394,2.5,3.036,3.321,4.928c0.822,1.892,1.246,3.909,1.277,6.05c0.028,2.142-0.361,4.151-1.166,6.028
	c-0.808,1.877-1.914,3.513-3.322,4.906c-1.408,1.395-3.051,2.493-4.928,3.301c-1.877,0.807-3.887,1.209-6.028,1.209
	c-2.141,0-4.151-0.402-6.028-1.209c-1.877-0.808-3.513-1.906-4.906-3.301c-1.394-1.393-2.494-3.029-3.3-4.906
	C0.403,19.597,0,17.587,0,15.446c0-2.141,0.403-4.143,1.21-6.006s1.907-3.491,3.3-4.884c1.393-1.393,3.028-2.493,4.906-3.3
	C11.293,0.449,13.303,0.031,15.444,0.001z M6.512,8.45c-0.206,0-0.382,0.074-0.528,0.22C5.808,8.846,5.72,9.037,5.72,9.242V21.65
	c0,0.264,0.088,0.455,0.264,0.572c0.146,0.147,0.323,0.22,0.528,0.22h17.864c0.205,0,0.381-0.073,0.528-0.22
	c0.146-0.146,0.22-0.337,0.22-0.572V9.242c0-0.176-0.074-0.366-0.22-0.572c-0.147-0.146-0.323-0.22-0.528-0.22H6.512z M7.216,20.198
	V11.09l5.148,4.488L7.216,20.198z M15.4,16.37l-6.908-6.116h13.86L15.4,16.37z M8.668,20.946l4.84-4.4l1.408,1.32l0.968,0.044
	l1.496-1.364l4.796,4.4H8.668z M23.672,20.198l-5.148-4.62l5.148-4.488V20.198z"/>
</svg>
