<?xml version="1.0" encoding="utf-8"?>
<!DOCTYPE svg PUBLIC "-//W3C//DTD SVG 1.1//EN" "http://www.w3.org/Graphics/SVG/1.1/DTD/svg11.dtd">
<svg version="1.1" id="Layer_1" xmlns="http://www.w3.org/2000/svg" xmlns:xlink="http://www.w3.org/1999/xlink" x="0px" y="0px"
	 width="30.887px" height="30.932px" viewBox="0 0 30.887 30.932" enable-background="new 0 0 30.887 30.932" xml:space="preserve">
<path d="M15.444,30.932c-2.142,0-4.151-0.402-6.028-1.209c-1.878-0.808-3.514-1.906-4.906-3.301
	c-1.394-1.393-2.493-3.029-3.3-4.906C0.402,19.639,0,17.63,0,15.488c0-2.141,0.402-4.15,1.21-6.028
	c0.807-1.876,1.906-3.52,3.3-4.928C5.902,3.124,7.538,2.017,9.416,1.21C11.293,0.404,13.303,0,15.444,0
	c2.141,0,4.15,0.404,6.027,1.21c1.877,0.807,3.513,1.914,4.906,3.322c1.393,1.408,2.493,3.051,3.3,4.928
	c0.808,1.878,1.21,3.887,1.21,6.028c0,2.142-0.402,4.151-1.209,6.028c-0.808,1.877-1.908,3.513-3.301,4.906
	c-1.395,1.395-3.029,2.493-4.906,3.301C19.595,30.529,17.585,30.932,15.444,30.932z M11.439,16.016h2.288v6.952h2.86v-6.952h2.86
	v-2.86h-2.86v-1.452c0-0.234,0.059-0.44,0.176-0.616c0.117-0.176,0.249-0.264,0.396-0.264h2.288V8.008H17.16
	c-0.939,0-1.746,0.367-2.42,1.1c-0.676,0.734-1.013,1.614-1.013,2.64v1.408h-2.288V16.016z"/>
</svg>
