<?xml version="1.0" encoding="utf-8"?>
<!DOCTYPE svg PUBLIC "-//W3C//DTD SVG 1.1//EN" "http://www.w3.org/Graphics/SVG/1.1/DTD/svg11.dtd">
<svg version="1.1" id="Layer_1" xmlns="http://www.w3.org/2000/svg" xmlns:xlink="http://www.w3.org/1999/xlink" x="0px" y="0px"
	 width="30.932px" height="30.934px" viewBox="0 0 30.932 30.934" enable-background="new 0 0 30.932 30.934" xml:space="preserve">
<path d="M15.444,0.001c2.112-0.029,4.099,0.36,5.962,1.166c1.862,0.807,3.499,1.907,4.907,3.3
	c1.408,1.394,2.521,3.036,3.344,4.928s1.246,3.909,1.275,6.05c0,2.142-0.404,4.151-1.209,6.028c-0.809,1.877-1.914,3.52-3.322,4.927
	c-1.408,1.408-3.051,2.516-4.928,3.322c-1.878,0.808-3.888,1.211-6.028,1.211c-2.142,0-4.151-0.403-6.028-1.211
	c-1.877-0.807-3.513-1.914-4.905-3.322c-1.394-1.407-2.494-3.05-3.301-4.927C0.403,19.597,0,17.587,0,15.446
	c0-2.141,0.403-4.143,1.21-6.006c0.807-1.862,1.907-3.49,3.301-4.884c1.393-1.393,3.028-2.493,4.905-3.3
	C11.293,0.449,13.303,0.031,15.444,0.001z M13.597,15.578c0-0.264,0.116-0.491,0.352-0.682c0.234-0.19,0.484-0.41,0.748-0.66
	c0.264-0.249,0.513-0.55,0.748-0.902c0.234-0.352,0.352-0.821,0.352-1.408c0-0.704-0.065-1.276-0.197-1.716
	c-0.133-0.44-0.478-0.792-1.034-1.056c0-0.088,0.103-0.146,0.308-0.176c0.205-0.029,0.425-0.066,0.66-0.11
	c0.234-0.044,0.454-0.095,0.66-0.154C16.397,8.655,16.5,8.538,16.5,8.362h-4.268c-0.821,0.059-1.556,0.235-2.2,0.528
	c-0.558,0.235-1.056,0.609-1.496,1.122c-0.439,0.514-0.66,1.239-0.66,2.178s0.19,1.636,0.572,2.09
	c0.381,0.455,0.821,0.77,1.32,0.946c0.527,0.206,1.158,0.279,1.892,0.22v0.924c0,0.206,0.088,0.33,0.264,0.374
	c0.177,0.044,0.279,0.257,0.309,0.638c-0.06,0-0.367,0.007-0.924,0.022c-0.558,0.015-1.159,0.125-1.805,0.33
	c-0.646,0.206-1.231,0.528-1.76,0.968c-0.529,0.44-0.792,1.071-0.792,1.892c0,0.851,0.227,1.496,0.682,1.937
	c0.455,0.44,0.961,0.748,1.519,0.924c0.645,0.235,1.393,0.337,2.244,0.308c0.938,0,1.789-0.132,2.552-0.396
	c0.645-0.234,1.232-0.616,1.76-1.144c0.528-0.528,0.792-1.32,0.792-2.376c0-0.616-0.153-1.137-0.462-1.562
	c-0.308-0.425-0.638-0.799-0.99-1.122c-0.352-0.322-0.682-0.601-0.989-0.836C13.75,16.091,13.597,15.842,13.597,15.578z
	 M12.101,22.706c-0.91,0.059-1.688-0.117-2.332-0.528c-0.646-0.411-0.998-0.938-1.057-1.584c-0.059-0.674,0.213-1.261,0.814-1.76
	c0.601-0.498,1.342-0.777,2.222-0.836c0.909-0.058,1.687,0.118,2.332,0.528c0.646,0.411,0.997,0.953,1.057,1.628
	c0.058,0.646-0.214,1.217-0.814,1.716C13.721,22.369,12.98,22.647,12.101,22.706z M9.9,12.41c-0.235-0.763-0.235-1.452,0-2.068
	c0.234-0.616,0.616-0.997,1.144-1.144c0.558-0.146,1.085-0.015,1.584,0.396c0.499,0.411,0.865,0.998,1.101,1.76
	c0.205,0.763,0.19,1.452-0.044,2.068c-0.235,0.616-0.616,0.998-1.145,1.144c-0.527,0.147-1.049,0.008-1.562-0.418
	C10.465,13.723,10.105,13.143,9.9,12.41z M21.868,11.397V8.362h-0.88v3.036h-2.992v0.88h2.992v2.992h0.88v-2.992h2.991v-0.88
	L21.868,11.397L21.868,11.397z"/>
</svg>
