<?xml version="1.0" encoding="utf-8"?>
<!DOCTYPE svg PUBLIC "-//W3C//DTD SVG 1.1//EN" "http://www.w3.org/Graphics/SVG/1.1/DTD/svg11.dtd">
<svg version="1.1" id="Layer_1" xmlns="http://www.w3.org/2000/svg" xmlns:xlink="http://www.w3.org/1999/xlink" x="0px" y="0px"
	 width="30.932px" height="30.889px" viewBox="0 0 30.932 30.889" enable-background="new 0 0 30.932 30.889" xml:space="preserve">
<path d="M15.62,0c2.112,0.03,4.099,0.448,5.962,1.254c1.862,0.807,3.49,1.907,4.884,3.3
	c1.394,1.394,2.486,3.029,3.277,4.906c0.793,1.877,1.188,3.872,1.188,5.984c0,2.142-0.404,4.151-1.211,6.028
	c-0.807,1.877-1.906,3.512-3.299,4.906c-1.395,1.394-3.029,2.493-4.906,3.3s-3.887,1.211-6.028,1.211
	c-2.142,0-4.151-0.404-6.028-1.211s-3.52-1.906-4.928-3.3c-1.408-1.394-2.516-3.029-3.322-4.906C0.403,19.595,0,17.586,0,15.444
	c0-2.112,0.403-4.106,1.21-5.984c0.807-1.877,1.899-3.513,3.278-4.906c1.378-1.393,2.999-2.493,4.862-3.3
	C11.212,0.448,13.2,0.03,15.312,0H15.62z M10.296,12.452c-0.733,0-1.357,0.257-1.87,0.77c-0.514,0.514-0.77,1.137-0.77,1.87
	c0,0.733,0.256,1.357,0.77,1.87c0.513,0.513,1.136,0.77,1.87,0.77c0.645,0,1.217-0.205,1.716-0.616l5.324,2.684v0.132
	c0,0.734,0.257,1.357,0.77,1.87c0.513,0.514,1.137,0.771,1.87,0.771s1.356-0.256,1.87-0.771c0.513-0.513,0.77-1.136,0.77-1.87
	c0-0.733-0.257-1.356-0.77-1.87c-0.514-0.513-1.137-0.77-1.87-0.77c-0.323,0-0.631,0.059-0.924,0.176
	c-0.293,0.118-0.558,0.264-0.792,0.44l-5.324-2.64v-0.176V14.96l5.324-2.684c0.499,0.411,1.07,0.616,1.716,0.616
	c0.733,0,1.356-0.249,1.87-0.748c0.513-0.498,0.77-1.129,0.77-1.892c0-0.733-0.257-1.349-0.77-1.848
	c-0.514-0.499-1.137-0.748-1.87-0.748s-1.357,0.25-1.87,0.748c-0.513,0.499-0.77,1.115-0.77,1.848v0.176l-5.324,2.684
	C11.484,12.672,10.912,12.452,10.296,12.452z"/>
</svg>
