<?xml version="1.0" encoding="utf-8"?>
<!DOCTYPE svg PUBLIC "-//W3C//DTD SVG 1.1//EN" "http://www.w3.org/Graphics/SVG/1.1/DTD/svg11.dtd">
<svg version="1.1" id="Layer_1" xmlns="http://www.w3.org/2000/svg" xmlns:xlink="http://www.w3.org/1999/xlink" x="0px" y="0px"
	 width="30.932px" height="30.889px" viewBox="0 0 30.932 30.889" enable-background="new 0 0 30.932 30.889" xml:space="preserve">
<path d="M15.488,0c2.141,0,4.15,0.404,6.028,1.21c1.877,0.807,3.513,1.907,4.906,3.3
	c1.393,1.394,2.492,3.029,3.301,4.906c0.807,1.878,1.209,3.887,1.209,6.028c0,2.142-0.402,4.151-1.209,6.028
	c-0.809,1.877-1.908,3.512-3.301,4.906c-1.395,1.394-3.029,2.493-4.906,3.3c-1.878,0.807-3.888,1.211-6.028,1.211
	c-2.142,0-4.151-0.404-6.028-1.211s-3.52-1.906-4.928-3.3c-1.408-1.394-2.516-3.029-3.322-4.906C0.403,19.595,0,17.586,0,15.444
	c0-2.141,0.403-4.15,1.21-6.028C2.017,7.54,3.124,5.904,4.532,4.51C5.94,3.117,7.583,2.017,9.46,1.21
	C11.337,0.404,13.347,0,15.488,0z M23.849,11c-0.294,0.118-0.587,0.213-0.88,0.286c-0.294,0.074-0.602,0.14-0.925,0.198
	c0.323-0.205,0.602-0.455,0.837-0.748c0.234-0.293,0.425-0.616,0.571-0.968c-0.323,0.147-0.653,0.293-0.99,0.44
	s-0.696,0.25-1.077,0.308c-0.265-0.322-0.588-0.572-0.969-0.748c-0.381-0.176-0.807-0.264-1.275-0.264
	c-0.852,0-1.584,0.308-2.2,0.924c-0.616,0.616-0.924,1.364-0.924,2.244c0,0.176,0.028,0.411,0.088,0.704
	c-1.32-0.058-2.53-0.381-3.63-0.968c-1.101-0.586-2.046-1.364-2.838-2.332C9.372,10.575,9.24,11.104,9.24,11.66
	c0,1.174,0.454,2.039,1.364,2.596c-0.528,0-0.998-0.117-1.408-0.352v0.044c0,0.763,0.234,1.43,0.704,2.002
	c0.469,0.572,1.056,0.932,1.76,1.078c-0.117,0.029-0.242,0.051-0.374,0.066c-0.132,0.015-0.286,0.022-0.462,0.022
	c-0.117,0-0.293-0.029-0.528-0.088c0.177,0.616,0.528,1.129,1.057,1.54c0.528,0.411,1.144,0.631,1.848,0.66
	c-1.115,0.88-2.405,1.32-3.872,1.32H8.58c0.675,0.44,1.423,0.785,2.244,1.034c0.821,0.25,1.672,0.374,2.552,0.374
	c1.438,0,2.713-0.271,3.828-0.814c1.114-0.542,2.046-1.239,2.794-2.09c0.748-0.851,1.312-1.804,1.694-2.86
	c0.381-1.056,0.572-2.112,0.572-3.168v-0.396c0.322-0.235,0.616-0.491,0.88-0.77C23.408,11.579,23.643,11.294,23.849,11z"/>
</svg>
